<?xml version="1.0" standalone="no"?>
<!DOCTYPE svg PUBLIC "-//W3C//DTD SVG 20010904//EN"
 "http://www.w3.org/TR/2001/REC-SVG-20010904/DTD/svg10.dtd">
<svg version="1.0" xmlns="http://www.w3.org/2000/svg"
 width="425.000000pt" height="304.000000pt" viewBox="0 0 425.000000 304.000000"
 preserveAspectRatio="xMidYMid meet">

<g transform="translate(0.000000,304.000000) scale(0.100000,-0.100000)"
fill="#000000" stroke="none">
<path d="M3713 2744 c-24 -18 -33 -34 -33 -54 0 -22 4 -28 15 -24 8 4 15 1 15
-6 0 -17 42 -2 62 24 19 23 24 76 8 76 -5 0 -10 -6 -10 -14 0 -21 -39 -66 -58
-66 -12 0 -10 6 10 28 26 28 43 62 30 62 -4 0 -22 -12 -39 -26z"/>
<path d="M3301 2673 c0 -21 -2 -62 -5 -90 -6 -57 4 -68 28 -30 21 34 26 78 13
116 -17 50 -38 52 -36 4z"/>
<path d="M3234 2665 c-17 -42 -18 -75 -2 -110 16 -36 38 -32 38 8 0 17 4 46 9
62 9 33 -2 75 -19 75 -6 0 -18 -16 -26 -35z"/>
<path d="M3580 2655 c9 -25 4 -55 -9 -55 -4 0 -8 -6 -8 -13 0 -7 -3 -25 -7
-40 -8 -32 6 -35 33 -8 38 38 35 141 -4 141 -11 0 -13 -5 -5 -25z"/>
<path d="M3534 2659 c-19 -24 -34 -81 -28 -105 8 -32 34 -31 34 1 0 13 5 35
12 49 14 32 -1 77 -18 55z"/>
<path d="M3415 2640 c-9 -15 5 -52 18 -47 15 5 16 49 0 54 -6 2 -14 -1 -18 -7z"/>
<path d="M3857 2643 c-14 -13 -6 -21 33 -37 23 -9 40 -23 40 -31 0 -38 87
-154 103 -138 19 18 5 81 -27 129 -43 63 -122 104 -149 77z"/>
<path d="M3823 2576 c3 -29 12 -55 21 -61 9 -7 16 -18 16 -24 0 -25 74 -81
106 -81 30 0 30 17 2 47 -13 14 -34 48 -48 76 -16 33 -32 53 -45 56 -11 1 -29
10 -39 20 -18 15 -19 14 -13 -33z"/>
<path d="M2813 2520 c-28 -12 -53 -60 -52 -102 0 -29 1 -31 12 -14 7 10 22 31
34 46 17 20 40 83 30 79 -1 0 -12 -4 -24 -9z m-12 -47 c-8 -15 -10 -15 -11 -2
0 17 10 32 18 25 2 -3 -1 -13 -7 -23z"/>
<path d="M2560 2512 c0 -6 10 -14 21 -17 12 -4 43 -30 70 -58 48 -50 49 -51
49 -24 0 40 -56 96 -102 104 -24 3 -38 2 -38 -5z"/>
<path d="M2852 2493 c-6 -16 -23 -43 -37 -62 -33 -44 -32 -55 3 -37 40 21 53
39 59 86 6 46 -7 53 -25 13z"/>
<path d="M3394 2486 c-9 -25 0 -61 16 -61 14 0 15 7 8 63 -2 16 -17 15 -24 -2z"/>
<path d="M2540 2471 c0 -30 37 -68 85 -87 25 -9 48 -14 51 -11 8 8 -81 96
-110 107 -22 8 -26 7 -26 -9z"/>
<path d="M3164 2466 c-9 -24 5 -36 41 -36 38 0 51 12 31 29 -23 20 -66 23 -72
7z"/>
<path d="M2990 2448 c-19 -21 -28 -86 -13 -101 8 -8 34 56 38 96 4 33 2 33
-25 5z"/>
<path d="M3036 2445 c3 -8 -2 -35 -11 -60 -10 -25 -15 -48 -12 -51 8 -8 47 57
47 78 0 23 -11 48 -21 48 -4 0 -6 -7 -3 -15z"/>
<path d="M3300 2415 c-12 -32 -6 -90 11 -101 16 -9 24 5 11 18 -15 15 -16 65
-1 73 17 11 23 -3 11 -30 -6 -14 -7 -25 -3 -25 5 0 11 -8 14 -17 3 -15 6 -14
14 6 13 32 2 86 -17 86 -8 0 -18 4 -22 10 -4 5 -12 -4 -18 -20z"/>
<path d="M4116 2420 c-34 -11 -66 -38 -66 -57 0 -11 5 -11 30 2 16 8 41 15 55
15 15 0 38 8 51 19 l24 19 -23 6 c-27 7 -34 7 -71 -4z"/>
<path d="M3890 2378 c1 -18 31 -53 58 -67 28 -15 28 -2 1 33 -26 33 -59 52
-59 34z"/>
<path d="M4190 2375 c-7 -8 -24 -15 -38 -15 -30 0 -92 -21 -92 -31 0 -13 37
-20 67 -14 47 11 73 27 73 47 0 11 4 17 9 13 5 -3 12 -1 16 5 10 16 -21 12
-35 -5z"/>
<path d="M2583 2320 c-37 -15 -75 -82 -71 -126 3 -44 21 -53 26 -14 2 14 14
36 26 50 12 14 34 42 50 63 23 32 25 37 9 36 -10 0 -28 -4 -40 -9z"/>
<path d="M3881 2313 c-18 -20 1 -33 49 -33 31 1 33 2 15 12 -11 6 -27 16 -35
23 -12 11 -18 10 -29 -2z"/>
<path d="M2692 2303 c-15 -26 -32 -30 -32 -8 0 27 -19 16 -39 -22 -10 -21 -28
-47 -40 -57 -23 -21 -29 -66 -8 -66 23 0 59 32 73 67 15 35 34 36 34 2 0 -10
4 -19 10 -19 5 0 9 10 7 21 -1 12 4 24 11 26 7 3 13 -1 11 -8 -5 -37 2 -44 21
-20 24 28 26 60 5 87 -14 18 -14 17 -15 -13 0 -18 -4 -33 -9 -33 -6 0 -11 15
-13 33 -3 31 -3 32 -16 10z"/>
<path d="M3095 2310 c39 -6 76 -12 83 -15 21 -8 13 -23 -15 -30 -16 -3 -43
-13 -61 -22 -29 -14 -34 -14 -60 2 l-27 17 25 -24 c14 -14 39 -28 55 -32 20
-4 25 -3 16 3 -22 15 -5 28 63 46 61 17 65 17 94 0 16 -10 37 -31 46 -46 15
-26 16 -30 2 -35 -9 -3 -46 -1 -82 5 -37 7 -68 10 -70 8 -7 -6 108 -30 151
-31 33 -1 40 -5 46 -26 9 -32 10 -130 1 -151 -4 -9 -39 -43 -78 -77 -39 -33
-83 -79 -99 -101 -37 -54 -49 -52 -42 7 l5 47 -11 -47 c-6 -27 -14 -48 -19
-48 -4 0 -8 -11 -8 -26 0 -14 -14 -57 -30 -96 -18 -43 -33 -97 -36 -139 -5
-48 -11 -69 -20 -69 -16 0 -18 99 -6 180 4 25 5 61 1 80 -5 29 -7 26 -8 -23
-1 -49 -4 -58 -18 -55 -10 2 -24 15 -32 30 -13 22 -13 35 -4 69 10 39 9 44
-10 60 -21 18 -23 18 -39 -2 -21 -25 -14 -49 13 -42 17 5 19 0 19 -46 0 -45 4
-56 30 -80 29 -26 30 -30 24 -87 -7 -69 -3 -80 64 -168 44 -57 119 -106 165
-106 29 0 19 28 -12 35 -45 10 -111 62 -127 100 -27 65 -19 100 32 151 32 31
49 42 54 34 6 -9 9 -9 13 1 5 12 7 11 16 -1 8 -12 12 -9 20 13 15 38 14 52 -3
66 -11 9 -20 9 -35 2 -11 -6 -22 -11 -24 -11 -11 0 -14 67 -4 85 25 51 168
205 189 205 11 0 2 -65 -17 -125 -12 -34 -23 -91 -50 -247 -4 -23 -1 -28 15
-28 15 0 20 7 20 28 0 33 35 112 50 112 5 0 10 7 10 16 0 9 9 27 20 41 11 15
18 28 16 30 -8 9 -45 -22 -50 -41 -3 -11 -8 -17 -11 -14 -3 3 4 64 16 134 22
131 45 188 82 200 19 6 24 24 6 24 -7 0 -9 10 -5 24 3 14 2 28 -4 31 -5 3 -10
-3 -10 -14 0 -12 -7 -21 -15 -21 -8 0 -15 7 -15 15 0 22 -37 93 -71 136 -41
52 -127 88 -225 94 l-79 4 70 -9z m45 -685 c0 -30 -36 -105 -50 -105 -13 0
-12 15 1 65 18 64 49 89 49 40z"/>
<path d="M2920 2300 c0 -11 31 -11 75 0 26 7 22 8 -22 9 -30 0 -53 -3 -53 -9z"/>
<path d="M3845 2259 c-10 -15 1 -23 20 -15 9 3 13 10 10 16 -8 13 -22 13 -30
-1z"/>
<path d="M2859 2228 c-8 -25 -2 -51 12 -59 37 -19 95 -21 109 -4 12 14 11 16
-11 10 -26 -6 -98 18 -82 28 6 4 24 1 41 -5 37 -14 55 -2 28 18 -16 11 -94 21
-97 12z"/>
<path d="M4057 2224 c-3 -3 -3 -12 0 -20 3 -8 0 -14 -6 -14 -8 0 -8 -6 1 -19
15 -24 79 -54 104 -49 16 3 14 7 -11 20 -36 19 -71 56 -62 65 4 4 20 -5 35
-19 15 -14 37 -31 49 -37 21 -11 22 -10 12 16 -14 42 -98 81 -122 57z"/>
<path d="M3820 2207 c-14 -7 -26 -20 -28 -30 -5 -26 12 -20 36 13 13 17 21 30
20 30 -2 0 -14 -6 -28 -13z"/>
<path d="M2759 2193 c-13 -16 -12 -17 4 -4 16 13 21 21 13 21 -2 0 -10 -8 -17
-17z"/>
<path d="M3027 2156 c-4 -10 -1 -16 8 -16 8 0 14 -5 13 -12 -2 -6 5 -14 15
-16 24 -5 21 10 -7 37 -20 19 -24 20 -29 7z"/>
<path d="M2880 2121 c0 -5 7 -14 15 -21 8 -7 15 -27 16 -44 0 -17 4 -40 8 -51
7 -17 8 -17 15 8 8 33 -1 76 -22 100 -16 18 -32 23 -32 8z"/>
<path d="M3112 2118 c-17 -17 -15 -36 9 -69 23 -33 46 -40 29 -9 -13 24 -3 26
22 3 27 -24 24 5 -4 47 -27 39 -39 45 -56 28z"/>
<path d="M2846 2095 c-4 -17 -1 -39 11 -63 23 -46 47 -56 37 -15 -4 15 -7 35
-7 43 1 9 -7 26 -16 39 l-18 24 -7 -28z"/>
<path d="M2535 2020 c-56 -22 -75 -42 -75 -79 l0 -25 28 25 c15 14 53 39 85
54 47 23 55 31 40 36 -24 10 -22 11 -78 -11z"/>
<path d="M3978 2030 c-10 -6 -18 -16 -18 -22 0 -9 3 -9 12 0 18 18 28 14 25
-10 -2 -21 2 -23 33 -20 42 4 70 26 53 43 -15 15 -85 21 -105 9z m87 -30 c-3
-5 -10 -10 -16 -10 -5 0 -9 5 -9 10 0 6 7 10 16 10 8 0 12 -4 9 -10z"/>
<path d="M4165 2028 c-38 -21 -65 -75 -30 -62 9 4 15 0 15 -10 0 -9 5 -16 11
-16 17 0 69 57 69 76 0 15 -3 14 -25 -6 -14 -13 -28 -20 -32 -16 -5 4 0 13 10
20 32 24 18 34 -18 14z"/>
<path d="M2615 1994 c-16 -9 -43 -24 -60 -32 -16 -8 -43 -26 -58 -39 l-29 -23
44 0 c49 0 98 26 123 64 24 36 16 49 -20 30z"/>
<path d="M2704 2000 c-42 -17 -40 -33 3 -26 21 4 50 3 64 -2 13 -5 42 -7 64
-3 l40 6 -37 18 c-38 18 -99 21 -134 7z"/>
<path d="M3232 1994 c-18 -12 -21 -19 -11 -30 15 -18 60 -18 85 1 11 8 14 15
7 15 -7 0 -12 6 -10 13 3 18 -45 20 -71 1z"/>
<path d="M2703 1953 c-31 -6 -29 -15 6 -36 36 -21 109 -22 139 -1 34 24 26 34
-25 32 -27 -1 -59 0 -73 4 -14 3 -35 4 -47 1z"/>
<path d="M4214 1949 c-3 -6 -1 -16 5 -22 8 -8 11 -5 11 11 0 24 -5 28 -16 11z"/>
<path d="M4016 1931 c-8 -12 3 -41 15 -41 5 0 9 11 9 25 0 25 -14 34 -24 16z"/>
<path d="M3779 1873 c-5 -14 -9 -33 -7 -41 2 -9 8 3 14 26 13 47 9 56 -7 15z"/>
<path d="M2717 1866 c-7 -18 12 -34 53 -46 38 -11 52 10 25 40 -21 23 -70 27
-78 6z"/>
<path d="M2660 1856 c0 -4 4 -14 9 -24 5 -9 17 -35 27 -57 18 -39 18 -40 22
-12 4 29 -24 87 -46 95 -6 2 -12 1 -12 -2z"/>
<path d="M4104 1845 c3 -8 0 -15 -6 -15 -6 0 -3 -9 7 -20 18 -20 69 -27 79
-11 10 15 -4 38 -30 50 -35 16 -57 14 -50 -4z"/>
<path d="M2635 1840 c-11 -18 4 -76 25 -95 27 -24 37 -12 16 20 -9 14 -14 30
-11 35 3 6 0 19 -8 31 -10 14 -17 17 -22 9z"/>
<path d="M2961 1815 c9 -11 14 -26 12 -32 -3 -7 0 -13 5 -13 5 0 12 11 14 25
3 13 1 22 -4 19 -5 -3 -17 0 -26 7 -16 13 -16 12 -1 -6z"/>
<path d="M3892 1800 c0 -19 2 -27 5 -17 2 9 2 25 0 35 -3 9 -5 1 -5 -18z"/>
<path d="M3956 1815 c3 -11 9 -30 11 -42 3 -11 14 -23 25 -26 14 -4 17 -2 9 7
-6 7 -8 16 -4 19 3 4 1 7 -5 7 -6 0 -19 12 -27 28 -9 15 -13 18 -9 7z"/>
<path d="M2750 1718 c0 -35 25 -66 40 -51 16 15 -1 67 -23 71 -12 3 -17 -3
-17 -20z"/>
<path d="M2510 1720 c-8 -5 -10 -10 -5 -11 28 -2 45 -8 71 -25 15 -11 43 -24
61 -30 l32 -11 -14 27 c-8 16 -31 34 -55 44 -46 18 -69 20 -90 6z"/>
<path d="M4031 1693 c24 -46 24 -100 1 -135 -20 -30 -84 -92 -190 -184 -68
-58 -155 -103 -166 -85 -3 4 17 29 43 55 33 32 58 71 77 115 15 36 42 83 61
104 38 43 44 61 10 29 -28 -27 -37 -28 -37 -4 0 9 9 23 20 30 11 7 20 17 20
22 0 6 -9 5 -21 -2 -17 -11 -22 -10 -33 5 -24 31 -31 18 -31 -58 0 -55 -4 -78
-16 -90 -15 -15 -18 -13 -38 26 -26 49 -72 111 -78 105 -2 -2 14 -35 37 -72
23 -38 42 -81 42 -97 1 -34 -55 -96 -122 -134 -56 -32 -70 -49 -70 -85 0 -26
2 -27 33 -22 17 3 39 8 47 10 18 6 140 -28 140 -38 0 -5 -48 -8 -107 -9 -70 0
-101 -3 -88 -9 38 -16 152 -11 207 10 31 11 81 21 118 21 36 1 52 4 35 6 -16
3 -33 9 -36 15 -4 7 -13 6 -27 -1 -36 -19 -161 -8 -169 16 -2 6 13 17 33 23
43 14 142 96 232 192 36 37 70 68 77 68 6 0 20 9 31 21 25 27 80 56 127 64 47
9 49 26 2 18 -19 -3 -35 -2 -35 1 0 4 16 24 35 44 62 66 37 56 -42 -17 -43
-39 -81 -71 -85 -71 -5 0 -8 16 -8 35 0 38 -21 98 -38 109 -5 3 -1 -11 9 -31z"/>
<path d="M3600 1704 c0 -5 7 -19 15 -30 8 -10 15 -14 15 -8 0 5 -7 19 -15 30
-8 10 -15 14 -15 8z"/>
<path d="M2494 1685 c3 -9 6 -20 6 -25 0 -17 57 -44 101 -48 55 -5 74 13 27
23 -18 4 -44 15 -58 24 -14 9 -38 23 -54 29 -25 11 -28 11 -22 -3z"/>
<path d="M3571 1627 c2 -1 13 -9 24 -17 19 -14 19 -14 6 3 -7 9 -18 17 -24 17
-6 0 -8 -1 -6 -3z"/>
<path d="M3550 1594 c0 -20 18 -54 29 -54 17 0 18 39 2 54 -22 20 -31 20 -31
0z"/>
<path d="M2473 1589 c9 -5 29 -21 44 -35 37 -35 59 -30 30 7 -16 21 -51 39
-74 39 -17 -1 -17 -1 0 -11z"/>
<path d="M2440 1568 c0 -22 22 -47 51 -57 40 -14 59 -14 59 -1 0 6 -6 10 -13
10 -8 0 -24 11 -36 24 -24 26 -61 40 -61 24z"/>
<path d="M3396 1553 c-6 -14 -5 -15 5 -6 7 7 10 15 7 18 -3 3 -9 -2 -12 -12z"/>
<path d="M3430 1561 c0 -5 7 -12 16 -15 14 -5 15 -4 4 9 -14 17 -20 19 -20 6z"/>
<path d="M4212 1512 c-7 -13 -12 -35 -10 -50 l3 -27 13 23 c7 13 12 35 10 50
l-3 27 -13 -23z"/>
<path d="M3270 1444 c0 -35 -4 -64 -9 -64 -5 0 -22 15 -36 33 l-27 32 19 -33
c10 -19 26 -38 36 -43 14 -8 19 -4 28 18 7 15 15 47 19 70 6 35 4 42 -12 46
-16 5 -18 -2 -18 -59z"/>
<path d="M3401 1501 c-17 -11 -7 -42 24 -71 17 -16 29 -20 35 -14 7 7 4 16
-10 29 -11 10 -20 26 -20 36 0 22 -12 30 -29 20z"/>
<path d="M3450 1494 c0 -9 9 -27 20 -41 l20 -26 0 29 c0 18 -7 34 -20 42 -17
10 -20 10 -20 -4z"/>
<path d="M4046 1479 c-26 -30 -35 -79 -16 -79 6 0 10 6 10 13 0 8 11 24 25 37
24 23 34 60 16 60 -5 0 -21 -14 -35 -31z"/>
<path d="M4111 1494 c-1 -11 -12 -31 -26 -44 -30 -28 -31 -36 -6 -43 27 -7 58
55 43 87 -11 21 -11 21 -11 0z"/>
<path d="M2612 1470 c0 -19 2 -27 5 -17 2 9 2 25 0 35 -3 9 -5 1 -5 -18z"/>
<path d="M2907 1480 c38 -23 63 -67 63 -110 0 -36 4 -37 -78 14 -54 34 -62 43
-62 69 0 29 -1 29 -18 14 -25 -23 -35 -21 -22 3 13 24 10 24 -34 6 -38 -16
-76 -60 -76 -89 0 -19 3 -17 31 11 30 31 65 49 76 39 2 -3 -8 -14 -24 -24 -29
-19 -64 -55 -58 -61 10 -10 64 12 89 35 l29 27 33 -20 c57 -34 194 -135 194
-144 0 -4 -19 -6 -42 -3 -47 6 -232 48 -264 59 -16 7 -17 5 -7 -8 7 -8 10 -17
7 -21 -3 -3 3 -8 14 -11 11 -4 23 -14 26 -22 4 -11 2 -14 -6 -11 -7 3 -21 8
-30 12 -31 12 -20 -14 15 -35 37 -23 37 -23 57 -10 13 8 13 13 -3 41 -10 18
-16 33 -14 35 2 2 41 -6 88 -17 46 -11 107 -24 134 -29 64 -11 111 -24 158
-44 35 -15 37 -15 37 1 0 12 -19 26 -58 42 -92 38 -161 87 -167 118 -15 70
-38 115 -69 134 -17 10 -35 19 -41 19 -5 0 4 -9 22 -20z"/>
<path d="M3521 1433 c0 -36 3 -43 9 -28 12 28 12 75 0 75 -5 0 -10 -21 -9 -47z"/>
<path d="M3351 1434 c-1 -11 10 -53 24 -93 22 -64 22 -73 8 -78 -10 -4 -23 2
-33 15 -10 12 -21 18 -24 14 -4 -3 -4 1 0 11 3 9 2 17 -4 17 -12 0 -26 -55
-18 -68 8 -13 158 -12 174 0 6 6 12 17 12 25 0 13 -3 13 -15 3 -8 -7 -25 -10
-39 -6 -23 6 -47 53 -74 146 -6 22 -10 28 -11 14z"/>
<path d="M3590 1422 c-21 -42 -22 -42 -16 -42 8 0 38 61 33 66 -2 2 -10 -8
-17 -24z"/>
<path d="M2463 1433 c-32 -6 -100 -85 -112 -131 -12 -41 -6 -76 10 -66 13 8
49 81 43 87 -3 3 3 4 12 4 12 -1 29 17 50 56 18 31 30 56 26 56 -4 -1 -17 -4
-29 -6z"/>
<path d="M2506 1403 c-4 -5 -14 -22 -21 -40 -7 -17 -27 -41 -44 -54 -17 -12
-31 -28 -31 -35 0 -6 -10 -24 -22 -39 l-22 -28 38 6 c55 9 101 48 120 103 20
60 9 113 -18 87z"/>
<path d="M2639 1373 c13 -25 58 -63 75 -63 6 0 2 5 -9 11 -11 6 -33 25 -49 42
-19 21 -24 25 -17 10z"/>
<path d="M4065 1318 c-22 -5 -44 -13 -50 -19 -7 -8 -1 -9 21 -5 17 4 42 2 56
-3 27 -10 90 0 72 12 -30 18 -63 23 -99 15z"/>
<path d="M2601 1264 c-38 -49 -20 -164 26 -164 11 0 13 5 7 18 -4 9 -7 52 -5
95 1 42 0 77 -3 77 -2 0 -14 -12 -25 -26z"/>
<path d="M2647 1218 c-7 -83 5 -120 30 -95 23 23 28 98 9 135 -9 18 -20 32
-25 32 -4 0 -11 -32 -14 -72z"/>
<path d="M4031 1273 c-23 -5 -23 -5 8 -24 40 -24 78 -24 116 1 l30 20 -52 0
c-28 0 -57 2 -65 4 -7 2 -24 1 -37 -1z"/>
<path d="M3337 1208 c-6 -4 -26 -8 -43 -8 -23 0 -33 -5 -37 -20 -4 -17 1 -19
51 -22 l56 -3 12 -54 c7 -32 22 -63 38 -79 28 -28 36 -26 40 9 1 13 8 41 15
62 7 21 10 44 7 52 -3 8 -1 15 4 15 5 0 9 11 8 25 -1 14 -8 25 -15 25 -8 0
-10 -7 -6 -17 7 -17 5 -17 -18 -2 -28 19 -94 29 -112 17z"/>
<path d="M4064 1082 c2 -80 8 -102 30 -102 28 0 36 106 10 145 -32 49 -42 39
-40 -43z"/>
<path d="M4015 1130 c-14 -16 -20 -36 -20 -70 0 -40 5 -54 29 -79 34 -35 55
-31 30 6 -11 18 -15 39 -12 67 3 23 2 54 -1 70 l-6 28 -20 -22z"/>
<path d="M3500 1022 c0 -11 7 -32 14 -48 16 -30 13 -44 -10 -44 -21 0 -19 -76
2 -84 11 -4 13 -13 8 -28 -3 -13 -11 -25 -16 -26 -33 -13 -38 -34 -38 -172 l0
-139 32 -25 32 -24 -28 -40 c-29 -42 -32 -85 -8 -110 18 -19 15 -31 -7 -25
-10 3 -22 0 -25 -6 -4 -7 -1 -8 8 -5 9 3 16 2 16 -4 0 -6 -6 -12 -12 -15 -7
-2 18 -5 56 -6 38 -1 73 -4 78 -7 10 -7 11 9 0 22 -5 5 -23 50 -40 99 -73 211
-63 373 28 495 48 64 51 99 13 135 -15 14 -31 25 -35 25 -3 0 -20 12 -37 26
-29 24 -31 24 -31 6z"/>
<path d="M4207 1024 c-9 -9 4 -35 14 -28 5 3 9 12 9 20 0 14 -12 19 -23 8z"/>
<path d="M4161 1006 c-15 -18 -10 -29 12 -24 9 2 12 9 8 21 -6 17 -8 18 -20 3z"/>
<path d="M4150 928 c0 -24 46 -98 69 -113 7 -4 11 14 11 53 0 55 -2 60 -24 66
-13 3 -31 9 -40 12 -12 5 -16 0 -16 -18z"/>
<path d="M3387 648 c-3 -24 -2 -63 2 -88 8 -43 9 -42 10 27 0 39 4 78 7 87 3
9 2 16 -4 16 -5 0 -12 -19 -15 -42z"/>
<path d="M3145 660 c-3 -6 1 -7 9 -4 18 7 21 14 7 14 -6 0 -13 -4 -16 -10z"/>
<path d="M3920 604 c0 -14 73 -92 90 -97 49 -13 -8 73 -60 92 -17 5 -30 8 -30
5z"/>
<path d="M3895 568 c17 -58 83 -108 116 -87 11 7 9 9 -8 9 -14 0 -35 17 -60
50 -41 53 -58 63 -48 28z"/>
<path d="M3420 270 c-8 -5 -10 -10 -5 -10 6 0 17 5 25 10 8 5 11 10 5 10 -5 0
-17 -5 -25 -10z"/>
<path d="M3334 245 c-10 -8 -14 -15 -8 -15 5 0 15 5 22 12 9 9 12 9 12 0 0
-12 61 -27 82 -19 14 5 -51 37 -75 37 -7 0 -22 -7 -33 -15z"/>
</g>
</svg>
