<?xml version="1.0" encoding="iso-8859-1"?>
<!-- Generator: Adobe Illustrator 19.0.0, SVG Export Plug-In . SVG Version: 6.00 Build 0)  -->
<svg version="1.1" id="Capa_1" xmlns="http://www.w3.org/2000/svg" xmlns:xlink="http://www.w3.org/1999/xlink" x="0px" y="0px"
	 viewBox="0 0 512 512" style="enable-background:new 0 0 512 512;" xml:space="preserve">
<path style="fill:#CE8951;" d="M398.772,64.695H120.182V12.522c0-2.761,2.239-5,5-5h268.591c2.761,0,5,2.239,5,5V64.695z"/>
<path style="fill:#C4773D;" d="M398.772,64.7h-52.729V7.522h47.729c2.761,0,5,2.239,5,5V64.7z"/>
<path style="fill:#CE8951;" d="M120.182,64.695l-35.09,60.967c-0.876,1.522-1.337,3.247-1.337,5.003v368.798
	c0,2.77,2.245,5.015,5.015,5.015h283.416l0.427-376.493l26.159-63.29L120.182,64.695L120.182,64.695z"/>
<path style="fill:#C4773D;" d="M398.767,64.7l-26.157,63.285l-0.421,376.493h-52.724l0.419-374.508
	c0.001-1.311,0.26-2.608,0.76-3.82l25.399-61.45H398.767z"/>
<path d="M393.757,15.044h0.01H393.757z"/>
<path style="fill:#CE8951;" d="M398.772,64.695l28.57,62.644c0.596,1.307,0.904,2.726,0.904,4.162v367.962
	c0,2.77-2.245,5.015-5.015,5.015h-51.046l0.427-376.493L398.772,64.695z"/>
<path style="fill:#C4773D;" d="M428.244,131.498v367.965c0,2.77-2.245,5.015-5.015,5.015h-21.122v-372.98
	c0-1.436-0.308-2.856-0.905-4.163L386.34,94.757L398.767,64.7l28.572,62.636C427.935,128.643,428.244,130.062,428.244,131.498z"/>
<path style="fill:#EFD1B9;" d="M228.109,7.522v57.173l-29.948,68.202v84.344c0,5.539,4.49,10.029,10.029,10.029h38.174
	c5.539,0,10.029-4.49,10.029-10.029V134.56l27.973-69.866V7.522H228.109z"/>
<path style="fill:#E5B89A;" d="M284.362,7.522V64.7l-27.972,69.865v82.682c0,5.539-4.49,10.029-10.029,10.029h-12.456v-92.712
	L261.876,64.7V7.522H284.362z"/>
<ellipse transform="matrix(0.4523 -0.8919 0.8919 0.4523 -203.1927 409.6539)" style="fill:#9E4716;" cx="231.935" cy="370.262" rx="78.772" ry="57.705"/>
<path style="fill:#7F3B0D;" d="M283.399,396.351c-19.678,38.804-58.672,58.572-87.095,44.159c-5.486-2.778-10.18-6.63-14.031-11.313
	c27.16,6.71,60.317-12.777,77.958-47.549c15.887-31.322,14.322-65.462-1.815-85.049c3.139,0.772,6.198,1.905,9.147,3.4
	C295.986,314.411,303.077,357.558,283.399,396.351z"/>
<path d="M428.246,327.208c4.154,0,7.522-3.367,7.522-7.522V131.501c0-2.531-0.532-4.981-1.582-7.283l-27.892-61.157V12.537
	C406.294,5.624,400.671,0,393.757,0H284.366h-56.258h-34.663c-4.154,0-7.522,3.367-7.522,7.522s3.368,7.522,7.522,7.522h27.141
	v42.129h-92.884V15.044h12.086c4.154,0,7.522-3.367,7.522-7.522S143.943,0,139.79,0h-14.594c-6.913,0-12.537,5.624-12.537,12.537
	v50.148L78.57,121.911c-1.53,2.66-2.339,5.687-2.339,8.754v368.798c0,6.913,5.624,12.537,12.537,12.537h283.417h51.046
	c6.913,0,12.537-5.624,12.537-12.537V373.845c0-4.155-3.368-7.522-7.522-7.522s-7.522,3.367-7.522,7.522v123.111h-41.008
	l0.417-367.473l13.417-32.461l5.561-13.455l21.387,46.894c0.15,0.328,0.226,0.679,0.226,1.04v188.185
	C420.724,323.841,424.092,327.208,428.246,327.208z M391.25,15.044v42.129h-99.362V15.044H391.25z M234.997,67.72
	c0.419-0.954,0.635-1.983,0.635-3.024V15.044h41.214v48.202l-27.434,68.519c-0.356,0.889-0.539,1.838-0.539,2.796v82.681
	c0,1.383-1.125,2.507-2.507,2.507h-38.175c-1.382,0-2.507-1.124-2.507-2.507v-82.766L234.997,67.72z M91.277,130.665
	c0-0.438,0.116-0.871,0.334-1.251l32.92-57.197h92.06l-25.317,57.655c-0.419,0.954-0.635,1.983-0.635,3.025v84.345
	c0,9.678,7.874,17.552,17.551,17.552h38.174c9.678,0,17.551-7.874,17.551-17.552v-81.231l25.542-63.793h98.066l-14.028,33.938
	l-7.835,18.956c-0.188,0.454-0.33,0.925-0.426,1.405c-0.048,0.24-0.084,0.482-0.108,0.726c-0.024,0.244-0.036,0.489-0.037,0.734
	v0.115l-0.419,368.864H91.277V130.665z"/>
<path d="M275.811,296.119c-0.253-0.186-0.518-0.352-0.79-0.503c-1.316-0.826-2.658-1.616-4.056-2.325
	c-15.94-8.083-34.986-7.33-53.629,2.122c-17.864,9.058-33.339,25.16-43.573,45.34c-10.235,20.181-14.082,42.18-10.834,61.944
	c3.39,20.626,14.035,36.437,29.975,44.521c7.317,3.71,15.287,5.559,23.574,5.559c9.765,0,19.97-2.568,30.055-7.682
	c17.865-9.058,33.339-25.16,43.573-45.34c10.235-20.181,14.082-42.18,10.834-61.944
	C297.908,319.359,289.053,304.779,275.811,296.119z M177.773,400.259c-2.734-16.634,0.607-35.35,9.406-52.7
	c8.799-17.351,21.925-31.105,36.959-38.727c7.911-4.011,15.809-6.028,23.246-6.028c3.198,0,6.307,0.385,9.3,1.134
	c-11.642,10.218-28.822,29.863-31.226,58.322c-0.235,2.78-0.273,5.709-0.119,9.218c0.48,10.954-0.684,47.104-35.271,55.17
	C183.816,420.161,179.56,411.127,177.773,400.259z M276.688,392.951c-8.799,17.351-21.925,31.104-36.959,38.727
	c-11.38,5.769-22.729,7.401-32.724,4.848c25.855-12.713,34.447-40.994,33.364-65.708c-0.125-2.851-0.099-5.168,0.08-7.292
	c2.307-27.306,22.119-45.375,30.798-52.048c7.646,6.565,12.829,16.491,14.847,28.773C288.828,356.884,285.488,375.6,276.688,392.951
	z"/>
<g>
</g>
<g>
</g>
<g>
</g>
<g>
</g>
<g>
</g>
<g>
</g>
<g>
</g>
<g>
</g>
<g>
</g>
<g>
</g>
<g>
</g>
<g>
</g>
<g>
</g>
<g>
</g>
<g>
</g>
</svg>
