<svg id="Capa_1" enable-background="new 0 0 33 33" height="33" viewBox="0 0 512 512" width="33" xmlns="http://www.w3.org/2000/svg"><g><g><path d="m120.715 478.699v-226.862c0-74.716 60.569-135.285 135.285-135.285s135.285 60.569 135.285 135.285v226.862z" fill="#dd636e"/></g><g><path d="m319.441 132.33c25.677 24.622 41.665 59.27 41.665 97.654v248.715h30.179v-226.862c0-51.787-29.104-96.771-71.844-119.507z" fill="#da4a54"/></g><g><path d="m327.805 334.049v-92.569c0-39.404-31.29-72.285-70.69-72.886-40.102-.611-72.92 31.832-72.92 71.796v93.659z" fill="#5c90b9"/></g><g><path d="m278.713 172.326c17.819 13.356 29.32 34.822 29.32 58.698v103.024h19.772v-92.568c0-31.85-20.448-59.429-49.092-69.154z" fill="#4a80aa"/></g><g><path d="m141.528 10.407v28.579c0 3.001 1.295 5.856 3.554 7.832l76.283 66.748c2.17 1.899 3.415 4.642 3.415 7.526v70.473c0 4.552 3.69 8.241 8.241 8.241h45.956c4.552 0 8.241-3.69 8.241-8.241v-70.473c0-2.884 1.245-5.627 3.415-7.526l76.283-66.748c2.258-1.976 3.554-4.831 3.554-7.832v-28.579c.002-5.748-4.658-10.407-10.405-10.407h-208.13c-5.747 0-10.407 4.659-10.407 10.407z" fill="#efecef"/></g><g><path d="m322.614 399.454-31.232 17.847h-70.764l-31.232-17.847c-3.21-1.834-5.191-5.248-5.191-8.944v-56.461h143.61v56.461c0 3.696-1.981 7.11-5.191 8.944z" fill="#efecef"/></g><g><path d="m309.517 334.049c3.359 32.304-21.15 66.344-60.188 80.303-3.239 1.158-6.488 2.126-9.735 2.949h51.787l31.232-17.847c3.21-1.834 5.191-5.248 5.191-8.944v-56.461z" fill="#dddaec"/></g><g><path d="m297.626 334.049h-83.252v-31.324c0-5.69 4.612-10.302 10.302-10.302h62.648c5.69 0 10.302 4.612 10.302 10.302z" fill="#2b4d66"/></g><g><path d="m220.618 417.301h70.764v61.398h-70.764z" fill="#4a80aa"/></g><g><path d="m391.389 512h-270.778c-5.69 0-10.302-4.612-10.302-10.302v-12.697c0-5.69 4.612-10.302 10.302-10.302h270.779c5.69 0 10.302 4.612 10.302 10.302v12.697c-.001 5.69-4.613 10.302-10.303 10.302z" fill="#5c90b9"/></g><g><path d="m391.389 512h-14.674v-33.301h14.674c5.69 0 10.302 4.612 10.302 10.302v12.697c0 5.69-4.612 10.302-10.302 10.302z" fill="#4a80aa"/></g><g><path d="m360.065 0h-20.813v29.8c0 3.414-2.767 6.181-6.181 6.181h-191.543v3.004c0 3.001 1.295 5.856 3.554 7.832l5.276 4.617h174.58c1.902 0 2.789 2.358 1.357 3.611l-59.717 52.253c-1.127.986-2.573 1.529-4.07 1.529h-46.558l5.415 4.738c2.17 1.899 3.415 4.642 3.415 7.526v3.189h25.038c3.414 0 6.181 2.767 6.181 6.181v69.345h22.978c4.552 0 8.241-3.69 8.241-8.241v-70.475c0-2.884 1.245-5.627 3.415-7.526l76.283-66.748c2.258-1.976 3.554-4.831 3.554-7.832v-28.578c.002-5.747-4.658-10.406-10.405-10.406z" fill="#dddaec"/></g><g><path d="m287.219 378.198h-62.439c-4.267 0-7.726-3.459-7.726-7.726s3.459-7.726 7.726-7.726h62.439c4.268 0 7.726 3.459 7.726 7.726.001 4.266-3.458 7.726-7.726 7.726z" fill="#2b4d66"/></g><g><path d="m357.984 454.165c-4.268 0-7.726-3.459-7.726-7.726v-10.406c0-4.267 3.459-7.726 7.726-7.726 4.268 0 7.726 3.459 7.726 7.726v10.406c0 4.267-3.459 7.726-7.726 7.726z" fill="#b1e4f9"/></g><g><path d="m324.683 454.165c-4.268 0-7.726-3.459-7.726-7.726v-10.406c0-4.267 3.459-7.726 7.726-7.726s7.726 3.459 7.726 7.726v10.406c0 4.267-3.458 7.726-7.726 7.726z" fill="#b1e4f9"/></g><g><path d="m154.016 454.165c-4.267 0-7.726-3.459-7.726-7.726v-10.406c0-4.267 3.459-7.726 7.726-7.726s7.726 3.459 7.726 7.726v10.406c0 4.267-3.459 7.726-7.726 7.726z" fill="#b1e4f9"/></g><g><path d="m187.317 454.165c-4.267 0-7.726-3.459-7.726-7.726v-10.406c0-4.267 3.459-7.726 7.726-7.726s7.726 3.459 7.726 7.726v10.406c0 4.267-3.459 7.726-7.726 7.726z" fill="#b1e4f9"/></g></g></svg>